<?xml version="1.0" standalone="no"?>
<!DOCTYPE svg PUBLIC "-//W3C//DTD SVG 20010904//EN"
 "http://www.w3.org/TR/2001/REC-SVG-20010904/DTD/svg10.dtd">
<svg version="1.0" xmlns="http://www.w3.org/2000/svg"
 width="1200.000000pt" height="1200.000000pt" viewBox="0 0 1200.000000 1200.000000"
 preserveAspectRatio="xMidYMid meet">
<metadata>
Created by potrace 1.11, written by Peter Selinger 2001-2013
</metadata>
<g transform="translate(0.000000,1200.000000) scale(0.100000,-0.100000)"
fill="#000000" stroke="none">
<path d="M8488 10635 c-2 -2 -19 -6 -38 -10 -94 -17 -100 -19 -178 -44 -68
-22 -241 -103 -283 -132 -14 -10 -29 -16 -33 -12 -3 3 -6 2 -6 -3 0 -6 -19
-21 -42 -34 -24 -13 -47 -28 -53 -33 -8 -7 -133 -95 -199 -139 -10 -7 -33 -24
-51 -38 -17 -14 -44 -34 -59 -45 -15 -11 -38 -29 -51 -40 -54 -46 -139 -122
-161 -142 -13 -13 -25 -23 -28 -23 -7 0 -207 -203 -281 -285 -107 -119 -109
-122 -129 -150 -11 -14 -27 -35 -36 -45 -9 -10 -25 -31 -36 -45 -10 -15 -24
-32 -29 -39 -18 -20 -81 -109 -153 -217 -61 -92 -88 -136 -136 -224 -6 -11
-13 -22 -16 -25 -3 -3 -16 -27 -30 -55 -14 -27 -29 -53 -33 -56 -5 -3 -9 -10
-9 -15 0 -5 -16 -40 -35 -79 -19 -38 -55 -119 -80 -180 -25 -60 -52 -124 -59
-142 -8 -17 -14 -37 -14 -45 0 -8 -3 -18 -7 -22 -5 -4 -8 -11 -9 -14 0 -4 -3
-14 -7 -22 -11 -27 -67 -202 -71 -219 -1 -9 -8 -36 -15 -61 -7 -25 -15 -52
-17 -60 -2 -8 -8 -35 -14 -59 -6 -24 -8 -46 -5 -49 2 -3 1 -10 -4 -16 -6 -6
-12 -25 -15 -41 -2 -17 -5 -30 -6 -30 -1 0 -4 -11 -6 -25 -4 -32 -12 -83 -18
-118 -2 -15 -7 -58 -11 -97 -4 -38 -8 -80 -9 -93 -4 -35 -14 -37 -38 -7 -12
16 -46 54 -75 84 -29 31 -53 60 -53 64 0 5 -4 5 -10 2 -5 -3 -10 -1 -10 4 0 6
-82 93 -183 193 -162 163 -227 222 -314 293 -14 11 -37 30 -52 43 -14 12 -50
42 -80 65 -30 23 -68 54 -85 70 -17 15 -33 27 -37 27 -3 0 -22 13 -40 30 -19
16 -37 30 -41 30 -4 0 -13 6 -20 13 -7 7 -51 40 -98 72 -47 33 -88 64 -92 70
-5 6 -8 6 -8 0 0 -5 -5 -2 -11 8 -5 9 -15 17 -22 17 -7 0 -25 11 -40 25 -15
14 -27 23 -27 20 0 -4 -15 4 -32 17 -18 13 -40 28 -50 33 -222 130 -420 233
-478 250 -3 1 -23 9 -45 19 -22 9 -83 31 -135 48 -52 17 -102 33 -110 36 -8 2
-22 6 -30 8 -8 1 -26 5 -40 8 -204 44 -425 52 -582 21 -16 -3 -38 -7 -50 -9
-13 -2 -35 -9 -50 -15 -16 -6 -28 -9 -28 -6 0 7 -185 -78 -188 -86 -2 -5 -9
-9 -16 -9 -7 0 -22 -9 -34 -20 -12 -12 -22 -18 -22 -15 0 7 -24 -15 -95 -83
-66 -63 -114 -120 -107 -127 3 -3 1 -5 -5 -5 -5 0 -21 -21 -34 -47 -13 -27
-27 -50 -32 -51 -4 -2 -5 -8 -1 -13 3 -5 0 -9 -5 -9 -6 0 -11 -6 -11 -14 0 -7
-9 -34 -21 -60 -11 -26 -22 -56 -25 -66 -2 -11 -6 -29 -8 -40 -3 -11 -8 -24
-11 -30 -3 -5 -8 -24 -10 -42 -2 -18 -7 -53 -11 -78 -11 -63 -10 -352 1 -425
5 -33 9 -70 9 -82 1 -13 3 -23 6 -23 3 0 6 -8 7 -17 3 -30 10 -66 23 -113 7
-25 12 -46 12 -47 0 -1 8 -26 19 -55 11 -29 22 -62 24 -72 7 -29 77 -179 93
-198 9 -10 12 -18 8 -18 -4 0 2 -13 13 -29 12 -16 21 -34 21 -40 0 -6 5 -11
10 -11 6 0 10 -4 10 -10 0 -11 135 -214 162 -244 10 -11 18 -23 18 -27 0 -4 6
-14 12 -21 15 -15 64 -79 94 -123 11 -16 35 -50 53 -75 17 -25 43 -62 57 -83
13 -20 31 -45 39 -55 42 -52 85 -113 85 -122 0 -6 5 -10 10 -10 6 0 10 -6 10
-14 0 -8 4 -16 8 -18 5 -1 30 -32 55 -68 26 -36 50 -69 55 -75 4 -5 53 -71
109 -146 56 -75 107 -142 115 -150 7 -8 25 -30 40 -51 15 -20 33 -42 40 -50 7
-7 33 -38 58 -68 114 -140 255 -289 383 -407 23 -22 67 -73 97 -114 55 -76
154 -204 193 -250 12 -14 38 -46 59 -70 124 -150 295 -332 631 -673 313 -317
468 -477 552 -571 44 -49 87 -96 95 -104 30 -32 79 -98 154 -209 86 -125 93
-136 151 -200 38 -42 155 -130 155 -116 0 3 7 1 15 -6 8 -7 15 -10 15 -7 0 14
-24 57 -32 57 -4 0 -8 6 -8 13 0 7 -9 23 -19 34 -11 12 -17 24 -14 27 4 3 1 6
-5 6 -7 0 -12 4 -12 9 0 6 -20 39 -45 75 -25 37 -45 69 -45 72 0 2 -5 10 -10
17 -6 7 -29 41 -52 77 -23 36 -45 67 -50 68 -4 2 -8 10 -8 17 0 8 -6 20 -13
27 -7 7 -57 81 -112 163 -55 83 -103 152 -107 153 -5 2 -8 8 -8 13 0 11 -70
111 -85 121 -5 4 -6 8 -1 8 5 0 0 10 -11 23 -24 26 -122 167 -141 203 -7 13
-17 24 -23 24 -5 0 -9 4 -9 10 0 5 -29 51 -65 102 -36 51 -65 99 -65 106 0 6
-4 12 -8 12 -4 0 -25 29 -47 65 -22 36 -43 65 -47 65 -5 0 -8 5 -8 11 0 5 -18
37 -40 69 -22 32 -40 62 -40 65 0 3 -5 11 -10 18 -6 7 -23 32 -39 57 -16 25
-76 118 -135 208 -58 90 -106 167 -106 172 0 4 -4 10 -8 12 -4 2 -35 44 -67
93 -33 50 -62 92 -65 95 -3 3 -23 30 -45 60 -22 30 -43 60 -47 65 -87 113
-118 157 -118 164 0 5 -7 11 -15 15 -8 3 -15 12 -15 20 0 8 -4 16 -8 18 -5 2
-50 59 -102 128 -52 69 -97 127 -102 128 -4 2 -8 9 -8 14 0 6 -7 18 -15 27 -9
9 -34 41 -56 71 -22 30 -48 66 -59 80 -83 109 -150 202 -150 208 0 4 -9 14
-20 22 -11 8 -20 19 -20 25 0 6 -11 23 -25 38 -14 15 -22 27 -18 27 4 0 3 4
-3 8 -5 4 -30 36 -55 72 -24 36 -47 67 -50 70 -3 3 -18 26 -33 53 -15 26 -32
47 -37 47 -5 0 -9 5 -9 11 0 6 -29 55 -65 110 -36 54 -65 103 -65 109 0 5 -4
10 -9 10 -5 0 -11 8 -15 18 -3 9 -19 40 -36 67 -16 28 -38 66 -47 85 -10 19
-43 82 -73 140 -30 58 -55 107 -55 110 -3 10 -17 45 -30 75 -46 106 -65 163
-68 198 -1 9 -5 17 -10 17 -5 0 -7 9 -4 20 3 11 2 22 -3 25 -9 5 -29 103 -34
163 -2 23 -5 45 -8 47 -2 2 -3 35 -2 72 7 279 66 367 250 376 61 3 166 -9 232
-27 12 -3 30 -8 40 -10 60 -14 79 -20 97 -32 11 -8 25 -14 32 -14 16 0 207
-92 211 -102 2 -4 12 -8 23 -8 10 0 19 -4 19 -10 0 -5 6 -10 13 -10 27 0 471
-298 547 -367 14 -13 28 -23 32 -23 4 0 15 -8 25 -18 10 -10 52 -45 93 -77 41
-33 80 -64 86 -70 12 -11 103 -89 138 -118 97 -81 537 -511 601 -587 17 -19
46 -53 65 -76 19 -22 55 -64 80 -94 25 -29 50 -58 55 -64 6 -6 32 -38 60 -71
86 -103 108 -127 204 -224 120 -119 272 -218 363 -236 36 -7 130 115 162 209
27 79 36 208 21 286 -6 32 -19 93 -21 103 -1 4 -3 9 -4 12 -1 3 -4 10 -5 15
-1 6 -4 12 -5 15 -1 3 -3 8 -4 13 -1 4 -7 16 -13 27 -6 11 -11 22 -11 25 1 5
-40 85 -57 111 -46 72 -47 79 -31 128 8 25 17 57 20 71 3 14 15 63 27 110 11
47 23 96 25 110 3 14 14 72 25 130 12 58 23 114 24 125 6 33 15 77 31 137 8
31 14 61 13 65 -1 4 0 15 4 23 3 8 16 51 28 95 12 44 27 86 33 94 9 12 8 13
-4 6 -12 -7 -13 -6 -4 6 10 14 34 85 41 124 2 10 7 22 11 25 4 3 8 10 9 15 3
18 60 168 84 220 12 28 23 53 23 56 1 5 31 69 47 99 4 8 22 42 40 75 18 33 43
77 55 97 13 21 24 41 24 45 0 5 11 21 25 36 14 15 23 27 19 27 -3 0 5 15 20
34 14 19 26 39 26 45 0 6 3 11 8 11 4 0 16 16 26 35 11 19 23 35 28 35 4 0 8
6 8 13 0 6 12 25 26 42 14 16 35 45 47 65 12 19 26 40 32 46 5 6 26 30 45 54
98 123 237 277 310 346 14 13 57 53 95 89 70 67 84 79 219 188 39 31 76 62 83
67 7 6 15 10 19 10 4 0 14 7 23 15 22 21 170 125 178 125 3 0 14 6 22 14 55
49 260 134 346 143 59 6 59 6 110 -1 56 -8 67 -10 90 -23 11 -6 23 -10 27 -10
4 1 17 -6 28 -15 11 -10 23 -18 25 -18 22 0 135 -135 135 -161 0 -5 4 -9 9 -9
5 0 11 -8 14 -17 3 -10 18 -47 32 -82 15 -36 28 -70 29 -75 2 -6 8 -31 15 -56
7 -25 15 -55 17 -68 2 -12 9 -50 15 -85 6 -34 12 -92 13 -130 2 -37 6 -70 9
-73 3 -3 2 -16 -3 -28 -4 -12 -4 -29 0 -37 11 -19 7 -590 -4 -608 -7 -10 -6
-12 4 -6 9 5 11 4 6 -4 -4 -6 -9 -37 -11 -69 -10 -133 -16 -209 -21 -247 -2
-22 -7 -65 -9 -95 -6 -73 -13 -129 -20 -160 -3 -14 -7 -50 -10 -80 -6 -54 -12
-93 -15 -97 -2 -2 -3 -11 -4 -20 -4 -40 -18 -139 -23 -158 -2 -11 -6 -36 -9
-55 -9 -74 -21 -146 -30 -190 -4 -19 -8 -47 -8 -62 -1 -16 -4 -28 -7 -28 -3 0
-6 -6 -6 -12 0 -12 -5 -42 -18 -113 -8 -40 -12 -58 -30 -135 -9 -36 -18 -78
-21 -95 -16 -83 -159 -534 -199 -630 -16 -38 -27 -67 -30 -80 -4 -13 -63 -161
-80 -200 -8 -16 -25 -58 -39 -92 -15 -35 -37 -86 -50 -115 -13 -29 -36 -82
-52 -118 -15 -36 -31 -67 -35 -70 -3 -3 -10 -16 -14 -30 -4 -13 -41 -94 -82
-180 -41 -85 -86 -180 -100 -210 -14 -30 -33 -63 -41 -72 -8 -10 -12 -18 -9
-18 4 0 -30 -73 -75 -162 -45 -90 -82 -165 -83 -168 -6 -32 -139 -274 -172
-315 -5 -5 -24 -35 -43 -65 -19 -30 -38 -56 -42 -58 -5 -2 -8 -7 -8 -12 0 -8
-60 -110 -70 -120 -3 -3 -28 -41 -55 -85 -27 -44 -53 -81 -57 -83 -4 -2 -8 -8
-8 -13 0 -11 -72 -123 -82 -127 -5 -2 -8 -9 -8 -15 0 -12 -51 -90 -62 -95 -5
-2 -8 -8 -8 -12 0 -9 -67 -116 -161 -258 -27 -41 -49 -78 -49 -83 0 -5 -4 -9
-10 -9 -5 0 -10 -5 -10 -10 0 -12 -40 -71 -55 -82 -7 -5 -7 -8 0 -8 7 0 7 -3
0 -8 -15 -10 -75 -101 -75 -112 0 -6 -4 -10 -10 -10 -5 0 -10 -7 -10 -15 0 -8
-3 -15 -7 -15 -5 0 -21 -23 -38 -51 -16 -28 -34 -56 -40 -62 -5 -7 -48 -68
-94 -137 -46 -69 -87 -127 -91 -130 -3 -3 -17 -23 -30 -45 -13 -22 -26 -42
-30 -45 -3 -3 -16 -22 -30 -42 -14 -21 -28 -38 -32 -38 -5 0 -8 -5 -8 -10 0
-6 -27 -48 -60 -93 -183 -249 -275 -373 -280 -377 -4 -3 -26 -32 -51 -65 -24
-33 -46 -62 -49 -65 -3 -3 -27 -32 -55 -65 -62 -74 -91 -108 -130 -149 -16
-18 -61 -68 -100 -111 -38 -43 -79 -87 -89 -98 -35 -36 -154 -200 -173 -236
-10 -20 -21 -38 -24 -41 -3 -3 -8 -16 -12 -29 -4 -15 22 6 79 65 138 146 229
245 232 255 2 5 8 7 13 3 5 -3 9 -1 9 4 0 6 19 30 43 55 23 25 78 84 122 132
44 49 91 100 105 115 21 23 92 102 175 194 19 21 106 121 148 170 10 12 38 44
62 71 24 28 62 73 85 100 23 28 47 55 53 60 7 6 25 28 42 50 16 21 36 46 45
55 8 9 30 35 48 57 19 23 41 51 50 62 10 10 28 33 42 51 14 17 32 39 41 48 8
9 44 53 80 97 35 44 69 85 74 91 6 6 24 28 40 49 17 21 35 43 40 49 6 6 28 34
50 61 22 28 46 57 55 67 8 9 26 31 40 49 14 18 49 62 77 98 29 37 56 71 61 76
4 6 30 39 58 75 29 36 100 130 158 210 59 80 113 152 119 160 7 9 32 45 56 80
24 36 72 106 106 155 34 50 64 95 66 100 2 6 25 42 50 80 75 113 159 254 159
265 0 5 5 10 10 10 6 0 10 6 10 14 0 8 3 16 8 18 6 3 27 38 71 123 9 16 18 32
21 35 7 7 61 104 120 215 37 69 227 442 231 453 1 4 4 15 7 25 2 9 8 17 13 17
5 0 9 6 9 13 0 7 8 31 19 53 18 38 60 130 86 189 27 61 38 90 37 98 -1 4 3 7
9 7 5 0 8 4 5 9 -3 4 1 17 9 27 8 10 15 25 15 32 0 7 9 32 20 54 11 23 20 48
20 55 0 7 5 13 12 13 6 0 9 3 6 6 -3 3 16 59 42 125 27 65 46 119 43 119 -3 0
-1 6 5 13 5 6 22 48 36 92 15 44 30 87 33 95 4 8 7 17 8 20 1 3 4 12 8 20 7
17 58 170 62 185 1 6 5 17 8 25 7 20 42 134 58 190 7 25 14 50 16 55 4 14 43
157 47 175 2 8 9 35 16 60 7 25 14 54 16 65 2 11 7 31 10 45 3 14 6 33 6 42
-1 10 3 20 9 23 5 4 9 19 9 36 0 16 3 29 8 29 4 0 7 12 8 28 0 31 10 91 24
142 5 19 11 53 14 75 3 22 12 80 21 128 9 49 15 96 13 105 -1 10 2 23 6 31 5
8 10 28 11 45 3 37 15 142 20 174 2 13 7 53 10 90 3 37 8 87 11 112 13 134 18
299 18 605 0 307 -4 412 -19 501 -3 16 -7 43 -9 59 -3 17 -8 41 -11 55 -4 14
-8 34 -9 45 -2 11 -6 27 -9 35 -4 8 -8 26 -9 40 -2 14 -6 30 -9 35 -4 6 -12
28 -18 50 -15 47 -20 61 -57 140 -15 33 -28 62 -29 65 -1 9 -28 55 -34 60 -3
3 -12 17 -19 31 -8 14 -23 38 -35 53 -12 14 -33 40 -47 58 -74 93 -210 195
-320 240 -97 39 -101 41 -150 52 -14 3 -41 9 -61 14 -33 8 -253 14 -261 7z"/>
</g>
</svg>
